<?xml version="1.0" encoding="utf-8"?>
<!-- Generator: Adobe Illustrator 19.2.1, SVG Export Plug-In . SVG Version: 6.00 Build 0)  -->
<svg version="1.1" id="Calque_1" xmlns="http://www.w3.org/2000/svg" xmlns:xlink="http://www.w3.org/1999/xlink" x="0px" y="0px"
	 viewBox="0 0 16 16" style="enable-background:new 0 0 16 16;" xml:space="preserve">
<style type="text/css">
	.st0{clip-path:url(#SVGID_2_);fill:#0080AF;}
	.st1{clip-path:url(#SVGID_2_);fill:#FFFFFF;}
</style>
<g>
	<defs>
		<rect id="SVGID_1_" width="16" height="16"/>
	</defs>
	<clipPath id="SVGID_2_">
		<use xlink:href="#SVGID_1_"  style="overflow:visible;"/>
	</clipPath>
	<path class="st0" d="M16,14c0,1.1-0.9,2-2,2H2c-1.1,0-2-0.9-2-2V2c0-1.1,0.9-2,2-2h12c1.1,0,2,0.9,2,2V14z"/>
	<path class="st1" d="M8,12.1c-2.1,0-2.8-1.8-2.8-3.6c0-2.2,0.9-4.5,3.4-4.5c0.5,0,1.1,0.1,1.6,0.2l-0.1,1.2
		C9.7,5.3,9.3,5.1,8.8,5.1c-1.3,0-1.9,1.2-2,2.3l0,0c0.4-0.4,0.9-0.6,1.6-0.6c1.4,0,2.3,1,2.3,2.4C10.7,10.9,9.7,12.1,8,12.1 M8,7.9
		c-0.6,0-1,0.2-1.1,0.5C6.8,8.6,6.8,8.9,6.8,9.1c0,0.7,0.3,1.8,1.3,1.8c0.8,0,1.1-0.8,1.1-1.5C9.1,8.7,8.8,7.9,8,7.9"/>
</g>
</svg>
