<?xml version="1.0" encoding="utf-8"?>
<!-- Generator: Adobe Illustrator 19.2.1, SVG Export Plug-In . SVG Version: 6.00 Build 0)  -->
<svg version="1.1" id="Calque_1" xmlns="http://www.w3.org/2000/svg" xmlns:xlink="http://www.w3.org/1999/xlink" x="0px" y="0px"
	 viewBox="0 0 16 16" style="enable-background:new 0 0 16 16;" xml:space="preserve">
<style type="text/css">
	.st0{clip-path:url(#SVGID_2_);fill:#FFB537;}
	.st1{clip-path:url(#SVGID_2_);fill:#FFFFFF;}
</style>
<g>
	<defs>
		<rect id="SVGID_1_" width="16" height="16"/>
	</defs>
	<clipPath id="SVGID_2_">
		<use xlink:href="#SVGID_1_"  style="overflow:visible;"/>
	</clipPath>
	<path class="st0" d="M16,14c0,1.1-0.9,2-2,2H2c-1.1,0-2-0.9-2-2V2c0-1.1,0.9-2,2-2h12c1.1,0,2,0.9,2,2V14z"/>
	<path class="st1" d="M7.4,12c-0.7,0-1.3-0.1-1.9-0.3l0.1-1.3c0.4,0.2,1,0.4,1.6,0.4c0.8,0,1.6-0.5,1.6-1.4C8.8,8.4,8,8,7,8
		C6.6,8,6.1,8,5.8,8.1L5.9,4h4.3v1.2h-3L7.2,6.8c0.1,0,0.3,0,0.5,0c1.5,0,2.8,0.9,2.8,2.6C10.5,10.8,9.4,12,7.4,12"/>
</g>
</svg>
